# xmcd CD database file
#
# Track frame offsets:
#	150
#	23494
#	56220
#	83687
#	107738
#	129239
#	148663
#	172643
#	213016
#	243006
#	253651
#
# Disc length: 3703 seconds
#
# Revision: 0
# Processed by: cddbd v1.4PL0 Copyright (c) Steve Scherf et al.
# Submitted via: CDex 1.50
#
DISCID=810e750b
DTITLE=HighNote (various) - Jazz Ballads with a Blue Feeling
DYEAR=2003
DGENRE=Jazz
TTITLE0=Everybody's Somebody's Fool
TTITLE1=God Bless the Child
TTITLE2=Good Morning Heartache
TTITLE3=Trav'lin' Light
TTITLE4=I'm Thru with Love
TTITLE5=Ill Wind
TTITLE6=This Bitter Earth
TTITLE7=I'm Afraid the Masquerade is Over
TTITLE8=When did you leave Heaven
TTITLE9=It's too soon to know
TTITLE10=One for my Baby
EXTD=YEAR: 2003
EXTT0=
EXTT1=
EXTT2=
EXTT3=
EXTT4=
EXTT5=
EXTT6=
EXTT7=
EXTT8=
EXTT9=
EXTT10=
PLAYORDER=
